<mxfile host="65bd71144e">
    <diagram name="Seite-1" id="MKljbgSeJdDD-drwOJYf">
        <mxGraphModel dx="1010" dy="1648" grid="1" gridSize="10" guides="1" tooltips="1" connect="1" arrows="1" fold="1" page="1" pageScale="1" pageWidth="827" pageHeight="1169" math="0" shadow="0">
            <root>
                <mxCell id="0"/>
                <mxCell id="1" parent="0"/>
                <mxCell id="9qIO0ISjUolwBI0pzcAZ-1" value="InventoryItem" style="rounded=0;whiteSpace=wrap;html=1;" parent="1" vertex="1">
                    <mxGeometry x="350" y="215" width="120" height="60" as="geometry"/>
                </mxCell>
                <mxCell id="9qIO0ISjUolwBI0pzcAZ-2" value="id" style="ellipse;whiteSpace=wrap;html=1;" parent="1" vertex="1">
                    <mxGeometry x="160" y="145" width="90" height="40" as="geometry"/>
                </mxCell>
                <mxCell id="9qIO0ISjUolwBI0pzcAZ-6" value="status" style="ellipse;whiteSpace=wrap;html=1;" parent="1" vertex="1">
                    <mxGeometry x="160" y="203" width="90" height="40" as="geometry"/>
                </mxCell>
                <mxCell id="9qIO0ISjUolwBI0pzcAZ-7" value="location" style="ellipse;whiteSpace=wrap;html=1;" parent="1" vertex="1">
                    <mxGeometry x="160" y="260" width="90" height="40" as="geometry"/>
                </mxCell>
                <mxCell id="9qIO0ISjUolwBI0pzcAZ-8" value="" style="endArrow=none;html=1;rounded=0;exitX=1;exitY=0.5;exitDx=0;exitDy=0;entryX=0;entryY=0.5;entryDx=0;entryDy=0;" parent="1" source="9qIO0ISjUolwBI0pzcAZ-2" target="9qIO0ISjUolwBI0pzcAZ-1" edge="1">
                    <mxGeometry width="50" height="50" relative="1" as="geometry">
                        <mxPoint x="410" y="355" as="sourcePoint"/>
                        <mxPoint x="460" y="305" as="targetPoint"/>
                    </mxGeometry>
                </mxCell>
                <mxCell id="9qIO0ISjUolwBI0pzcAZ-12" value="" style="endArrow=none;html=1;rounded=0;exitX=1;exitY=0.5;exitDx=0;exitDy=0;entryX=0;entryY=0.5;entryDx=0;entryDy=0;" parent="1" source="9qIO0ISjUolwBI0pzcAZ-6" target="9qIO0ISjUolwBI0pzcAZ-1" edge="1">
                    <mxGeometry width="50" height="50" relative="1" as="geometry">
                        <mxPoint x="410" y="355" as="sourcePoint"/>
                        <mxPoint x="350" y="245" as="targetPoint"/>
                    </mxGeometry>
                </mxCell>
                <mxCell id="9qIO0ISjUolwBI0pzcAZ-13" value="" style="endArrow=none;html=1;rounded=0;exitX=1;exitY=0.5;exitDx=0;exitDy=0;entryX=0;entryY=0.5;entryDx=0;entryDy=0;" parent="1" source="9qIO0ISjUolwBI0pzcAZ-7" target="9qIO0ISjUolwBI0pzcAZ-1" edge="1">
                    <mxGeometry width="50" height="50" relative="1" as="geometry">
                        <mxPoint x="330" y="405" as="sourcePoint"/>
                        <mxPoint x="380" y="355" as="targetPoint"/>
                    </mxGeometry>
                </mxCell>
                <mxCell id="9qIO0ISjUolwBI0pzcAZ-14" value="Reservation" style="rounded=0;whiteSpace=wrap;html=1;" parent="1" vertex="1">
                    <mxGeometry x="350" y="590" width="120" height="60" as="geometry"/>
                </mxCell>
                <mxCell id="9qIO0ISjUolwBI0pzcAZ-15" value="id" style="ellipse;whiteSpace=wrap;html=1;" parent="1" vertex="1">
                    <mxGeometry x="160" y="530" width="90" height="40" as="geometry"/>
                </mxCell>
                <mxCell id="9qIO0ISjUolwBI0pzcAZ-16" value="startDate" style="ellipse;whiteSpace=wrap;html=1;" parent="1" vertex="1">
                    <mxGeometry x="160" y="585" width="90" height="40" as="geometry"/>
                </mxCell>
                <mxCell id="9qIO0ISjUolwBI0pzcAZ-17" value="endDate" style="ellipse;whiteSpace=wrap;html=1;" parent="1" vertex="1">
                    <mxGeometry x="160" y="640" width="90" height="40" as="geometry"/>
                </mxCell>
                <mxCell id="9qIO0ISjUolwBI0pzcAZ-18" value="status" style="ellipse;whiteSpace=wrap;html=1;" parent="1" vertex="1">
                    <mxGeometry x="160" y="695" width="90" height="40" as="geometry"/>
                </mxCell>
                <mxCell id="9qIO0ISjUolwBI0pzcAZ-19" value="" style="endArrow=none;html=1;rounded=0;exitX=1;exitY=0.5;exitDx=0;exitDy=0;entryX=0;entryY=0.5;entryDx=0;entryDy=0;" parent="1" source="9qIO0ISjUolwBI0pzcAZ-15" target="9qIO0ISjUolwBI0pzcAZ-14" edge="1">
                    <mxGeometry width="50" height="50" relative="1" as="geometry">
                        <mxPoint x="410" y="730" as="sourcePoint"/>
                        <mxPoint x="460" y="680" as="targetPoint"/>
                    </mxGeometry>
                </mxCell>
                <mxCell id="9qIO0ISjUolwBI0pzcAZ-20" value="" style="endArrow=none;html=1;rounded=0;exitX=1;exitY=0.5;exitDx=0;exitDy=0;entryX=0;entryY=0.5;entryDx=0;entryDy=0;" parent="1" source="9qIO0ISjUolwBI0pzcAZ-16" target="9qIO0ISjUolwBI0pzcAZ-14" edge="1">
                    <mxGeometry width="50" height="50" relative="1" as="geometry">
                        <mxPoint x="410" y="770" as="sourcePoint"/>
                        <mxPoint x="350" y="660" as="targetPoint"/>
                        <Array as="points"/>
                    </mxGeometry>
                </mxCell>
                <mxCell id="9qIO0ISjUolwBI0pzcAZ-21" value="" style="endArrow=none;html=1;rounded=0;entryX=1;entryY=0.5;entryDx=0;entryDy=0;exitX=0;exitY=0.5;exitDx=0;exitDy=0;" parent="1" source="9qIO0ISjUolwBI0pzcAZ-14" target="9qIO0ISjUolwBI0pzcAZ-17" edge="1">
                    <mxGeometry width="50" height="50" relative="1" as="geometry">
                        <mxPoint x="350" y="660" as="sourcePoint"/>
                        <mxPoint x="450" y="800" as="targetPoint"/>
                    </mxGeometry>
                </mxCell>
                <mxCell id="9qIO0ISjUolwBI0pzcAZ-22" value="" style="endArrow=none;html=1;rounded=0;exitX=1;exitY=0.5;exitDx=0;exitDy=0;entryX=0;entryY=0.5;entryDx=0;entryDy=0;" parent="1" source="9qIO0ISjUolwBI0pzcAZ-18" target="9qIO0ISjUolwBI0pzcAZ-14" edge="1">
                    <mxGeometry width="50" height="50" relative="1" as="geometry">
                        <mxPoint x="410" y="770" as="sourcePoint"/>
                        <mxPoint x="350" y="660" as="targetPoint"/>
                    </mxGeometry>
                </mxCell>
                <mxCell id="9qIO0ISjUolwBI0pzcAZ-23" value="person" style="rounded=0;whiteSpace=wrap;html=1;" parent="1" vertex="1">
                    <mxGeometry x="350" y="960" width="120" height="60" as="geometry"/>
                </mxCell>
                <mxCell id="9qIO0ISjUolwBI0pzcAZ-24" value="id" style="ellipse;whiteSpace=wrap;html=1;" parent="1" vertex="1">
                    <mxGeometry x="160" y="860" width="90" height="40" as="geometry"/>
                </mxCell>
                <mxCell id="9qIO0ISjUolwBI0pzcAZ-25" value="name" style="ellipse;whiteSpace=wrap;html=1;" parent="1" vertex="1">
                    <mxGeometry x="160" y="910" width="90" height="40" as="geometry"/>
                </mxCell>
                <mxCell id="9qIO0ISjUolwBI0pzcAZ-26" value="surname" style="ellipse;whiteSpace=wrap;html=1;" parent="1" vertex="1">
                    <mxGeometry x="160" y="960" width="90" height="40" as="geometry"/>
                </mxCell>
                <mxCell id="9qIO0ISjUolwBI0pzcAZ-27" value="street" style="ellipse;whiteSpace=wrap;html=1;" parent="1" vertex="1">
                    <mxGeometry x="160" y="1010" width="90" height="40" as="geometry"/>
                </mxCell>
                <mxCell id="9qIO0ISjUolwBI0pzcAZ-28" value="postcode" style="ellipse;whiteSpace=wrap;html=1;" parent="1" vertex="1">
                    <mxGeometry x="160" y="1060" width="90" height="40" as="geometry"/>
                </mxCell>
                <mxCell id="9qIO0ISjUolwBI0pzcAZ-29" value="place" style="ellipse;whiteSpace=wrap;html=1;" parent="1" vertex="1">
                    <mxGeometry x="160" y="1110" width="90" height="40" as="geometry"/>
                </mxCell>
                <mxCell id="9qIO0ISjUolwBI0pzcAZ-30" value="" style="endArrow=none;html=1;rounded=0;exitX=1;exitY=0.5;exitDx=0;exitDy=0;entryX=0;entryY=0.5;entryDx=0;entryDy=0;" parent="1" source="9qIO0ISjUolwBI0pzcAZ-24" target="9qIO0ISjUolwBI0pzcAZ-23" edge="1">
                    <mxGeometry width="50" height="50" relative="1" as="geometry">
                        <mxPoint x="410" y="1100" as="sourcePoint"/>
                        <mxPoint x="460" y="1050" as="targetPoint"/>
                    </mxGeometry>
                </mxCell>
                <mxCell id="9qIO0ISjUolwBI0pzcAZ-31" value="" style="endArrow=none;html=1;rounded=0;exitX=1;exitY=0.5;exitDx=0;exitDy=0;entryX=0;entryY=0.5;entryDx=0;entryDy=0;" parent="1" source="9qIO0ISjUolwBI0pzcAZ-25" target="9qIO0ISjUolwBI0pzcAZ-23" edge="1">
                    <mxGeometry width="50" height="50" relative="1" as="geometry">
                        <mxPoint x="410" y="1100" as="sourcePoint"/>
                        <mxPoint x="350" y="990" as="targetPoint"/>
                        <Array as="points">
                            <mxPoint x="300" y="960"/>
                        </Array>
                    </mxGeometry>
                </mxCell>
                <mxCell id="9qIO0ISjUolwBI0pzcAZ-32" value="" style="endArrow=none;html=1;rounded=0;entryX=1;entryY=0.5;entryDx=0;entryDy=0;exitX=0;exitY=0.5;exitDx=0;exitDy=0;" parent="1" source="9qIO0ISjUolwBI0pzcAZ-23" target="9qIO0ISjUolwBI0pzcAZ-26" edge="1">
                    <mxGeometry width="50" height="50" relative="1" as="geometry">
                        <mxPoint x="400" y="1180" as="sourcePoint"/>
                        <mxPoint x="450" y="1130" as="targetPoint"/>
                    </mxGeometry>
                </mxCell>
                <mxCell id="9qIO0ISjUolwBI0pzcAZ-33" value="" style="endArrow=none;html=1;rounded=0;exitX=1;exitY=0.5;exitDx=0;exitDy=0;entryX=0;entryY=0.5;entryDx=0;entryDy=0;" parent="1" source="9qIO0ISjUolwBI0pzcAZ-27" target="9qIO0ISjUolwBI0pzcAZ-23" edge="1">
                    <mxGeometry width="50" height="50" relative="1" as="geometry">
                        <mxPoint x="410" y="1100" as="sourcePoint"/>
                        <mxPoint x="350" y="990" as="targetPoint"/>
                    </mxGeometry>
                </mxCell>
                <mxCell id="9qIO0ISjUolwBI0pzcAZ-34" value="" style="endArrow=none;html=1;rounded=0;exitX=1;exitY=0.5;exitDx=0;exitDy=0;entryX=0;entryY=0.5;entryDx=0;entryDy=0;" parent="1" source="9qIO0ISjUolwBI0pzcAZ-28" target="9qIO0ISjUolwBI0pzcAZ-23" edge="1">
                    <mxGeometry width="50" height="50" relative="1" as="geometry">
                        <mxPoint x="410" y="1100" as="sourcePoint"/>
                        <mxPoint x="350" y="990" as="targetPoint"/>
                    </mxGeometry>
                </mxCell>
                <mxCell id="9qIO0ISjUolwBI0pzcAZ-35" value="" style="endArrow=none;html=1;rounded=0;exitX=1;exitY=0.5;exitDx=0;exitDy=0;entryX=0;entryY=0.5;entryDx=0;entryDy=0;" parent="1" source="9qIO0ISjUolwBI0pzcAZ-29" target="9qIO0ISjUolwBI0pzcAZ-23" edge="1">
                    <mxGeometry width="50" height="50" relative="1" as="geometry">
                        <mxPoint x="330" y="1150" as="sourcePoint"/>
                        <mxPoint x="380" y="1100" as="targetPoint"/>
                    </mxGeometry>
                </mxCell>
                <mxCell id="9qIO0ISjUolwBI0pzcAZ-36" value="house number" style="ellipse;whiteSpace=wrap;html=1;" parent="1" vertex="1">
                    <mxGeometry x="160" y="1160" width="90" height="40" as="geometry"/>
                </mxCell>
                <mxCell id="9qIO0ISjUolwBI0pzcAZ-37" value="telephone number" style="ellipse;whiteSpace=wrap;html=1;" parent="1" vertex="1">
                    <mxGeometry x="160" y="1210" width="90" height="40" as="geometry"/>
                </mxCell>
                <mxCell id="9qIO0ISjUolwBI0pzcAZ-38" value="" style="endArrow=none;html=1;rounded=0;exitX=1;exitY=0.5;exitDx=0;exitDy=0;entryX=0;entryY=0.5;entryDx=0;entryDy=0;" parent="1" source="9qIO0ISjUolwBI0pzcAZ-36" target="9qIO0ISjUolwBI0pzcAZ-23" edge="1">
                    <mxGeometry width="50" height="50" relative="1" as="geometry">
                        <mxPoint x="270" y="1190" as="sourcePoint"/>
                        <mxPoint x="320" y="1140" as="targetPoint"/>
                    </mxGeometry>
                </mxCell>
                <mxCell id="9qIO0ISjUolwBI0pzcAZ-39" value="" style="endArrow=none;html=1;rounded=0;exitX=1;exitY=0.5;exitDx=0;exitDy=0;" parent="1" source="9qIO0ISjUolwBI0pzcAZ-37" edge="1">
                    <mxGeometry width="50" height="50" relative="1" as="geometry">
                        <mxPoint x="270" y="1190" as="sourcePoint"/>
                        <mxPoint x="350" y="990" as="targetPoint"/>
                    </mxGeometry>
                </mxCell>
                <mxCell id="9qIO0ISjUolwBI0pzcAZ-47" value="includes" style="rhombus;whiteSpace=wrap;html=1;" parent="1" vertex="1">
                    <mxGeometry x="370" y="410" width="80" height="80" as="geometry"/>
                </mxCell>
                <mxCell id="9qIO0ISjUolwBI0pzcAZ-48" value="" style="endArrow=none;html=1;rounded=0;entryX=0.5;entryY=1;entryDx=0;entryDy=0;exitX=0.5;exitY=0;exitDx=0;exitDy=0;" parent="1" source="9qIO0ISjUolwBI0pzcAZ-47" target="9qIO0ISjUolwBI0pzcAZ-1" edge="1">
                    <mxGeometry width="50" height="50" relative="1" as="geometry">
                        <mxPoint x="410.00000000000045" y="385" as="sourcePoint"/>
                        <mxPoint x="505" y="425" as="targetPoint"/>
                    </mxGeometry>
                </mxCell>
                <mxCell id="9qIO0ISjUolwBI0pzcAZ-49" value="" style="endArrow=none;html=1;rounded=0;exitX=0.5;exitY=1;exitDx=0;exitDy=0;entryX=0.5;entryY=0;entryDx=0;entryDy=0;" parent="1" source="9qIO0ISjUolwBI0pzcAZ-47" target="9qIO0ISjUolwBI0pzcAZ-14" edge="1">
                    <mxGeometry width="50" height="50" relative="1" as="geometry">
                        <mxPoint x="315" y="450" as="sourcePoint"/>
                        <mxPoint x="555" y="340" as="targetPoint"/>
                    </mxGeometry>
                </mxCell>
                <mxCell id="9qIO0ISjUolwBI0pzcAZ-50" value="n" style="text;html=1;align=center;verticalAlign=middle;resizable=0;points=[];autosize=1;strokeColor=none;fillColor=none;" parent="1" vertex="1">
                    <mxGeometry x="410" y="530" width="30" height="30" as="geometry"/>
                </mxCell>
                <mxCell id="9qIO0ISjUolwBI0pzcAZ-51" value="1" style="text;html=1;align=center;verticalAlign=middle;resizable=0;points=[];autosize=1;strokeColor=none;fillColor=none;" parent="1" vertex="1">
                    <mxGeometry x="410" y="325" width="30" height="30" as="geometry"/>
                </mxCell>
                <mxCell id="9qIO0ISjUolwBI0pzcAZ-52" value="does" style="rhombus;whiteSpace=wrap;html=1;" parent="1" vertex="1">
                    <mxGeometry x="370" y="760" width="80" height="80" as="geometry"/>
                </mxCell>
                <mxCell id="9qIO0ISjUolwBI0pzcAZ-53" value="" style="endArrow=none;html=1;rounded=0;exitX=0.5;exitY=0;exitDx=0;exitDy=0;entryX=0.5;entryY=1;entryDx=0;entryDy=0;" parent="1" source="9qIO0ISjUolwBI0pzcAZ-52" target="9qIO0ISjUolwBI0pzcAZ-14" edge="1">
                    <mxGeometry width="50" height="50" relative="1" as="geometry">
                        <mxPoint x="455" y="800" as="sourcePoint"/>
                        <mxPoint x="410" y="650" as="targetPoint"/>
                    </mxGeometry>
                </mxCell>
                <mxCell id="9qIO0ISjUolwBI0pzcAZ-54" value="1" style="text;html=1;align=center;verticalAlign=middle;resizable=0;points=[];autosize=1;strokeColor=none;fillColor=none;" parent="1" vertex="1">
                    <mxGeometry x="410" y="865" width="30" height="30" as="geometry"/>
                </mxCell>
                <mxCell id="9qIO0ISjUolwBI0pzcAZ-55" value="n" style="text;html=1;align=center;verticalAlign=middle;resizable=0;points=[];autosize=1;strokeColor=none;fillColor=none;" parent="1" vertex="1">
                    <mxGeometry x="410" y="700" width="30" height="30" as="geometry"/>
                </mxCell>
                <mxCell id="9qIO0ISjUolwBI0pzcAZ-56" value="" style="endArrow=none;html=1;rounded=0;exitX=0.5;exitY=1;exitDx=0;exitDy=0;entryX=0.5;entryY=0;entryDx=0;entryDy=0;" parent="1" source="9qIO0ISjUolwBI0pzcAZ-52" target="9qIO0ISjUolwBI0pzcAZ-23" edge="1">
                    <mxGeometry width="50" height="50" relative="1" as="geometry">
                        <mxPoint x="420" y="860" as="sourcePoint"/>
                        <mxPoint x="470" y="810" as="targetPoint"/>
                    </mxGeometry>
                </mxCell>
                <mxCell id="9qIO0ISjUolwBI0pzcAZ-64" value="" style="endArrow=none;html=1;rounded=0;exitX=1;exitY=0.5;exitDx=0;exitDy=0;" parent="1" source="9qIO0ISjUolwBI0pzcAZ-65" edge="1">
                    <mxGeometry width="50" height="50" relative="1" as="geometry">
                        <mxPoint x="240" y="1310" as="sourcePoint"/>
                        <mxPoint x="350" y="990" as="targetPoint"/>
                    </mxGeometry>
                </mxCell>
                <mxCell id="9qIO0ISjUolwBI0pzcAZ-65" value="role" style="ellipse;whiteSpace=wrap;html=1;" parent="1" vertex="1">
                    <mxGeometry x="160" y="1260" width="90" height="40" as="geometry"/>
                </mxCell>
                <mxCell id="hKJBpCLCRCkRCq5ISVUC-4" style="edgeStyle=orthogonalEdgeStyle;rounded=0;orthogonalLoop=1;jettySize=auto;html=1;endArrow=none;endFill=0;" parent="1" source="hKJBpCLCRCkRCq5ISVUC-2" target="9qIO0ISjUolwBI0pzcAZ-1" edge="1">
                    <mxGeometry relative="1" as="geometry"/>
                </mxCell>
                <mxCell id="hKJBpCLCRCkRCq5ISVUC-24" value="n" style="edgeLabel;html=1;align=center;verticalAlign=middle;resizable=0;points=[];" parent="hKJBpCLCRCkRCq5ISVUC-4" vertex="1" connectable="0">
                    <mxGeometry x="-0.4071" y="-4" relative="1" as="geometry">
                        <mxPoint x="14" y="4" as="offset"/>
                    </mxGeometry>
                </mxCell>
                <mxCell id="hKJBpCLCRCkRCq5ISVUC-6" value="" style="edgeStyle=orthogonalEdgeStyle;rounded=0;orthogonalLoop=1;jettySize=auto;html=1;endArrow=none;endFill=0;" parent="1" source="hKJBpCLCRCkRCq5ISVUC-2" target="hKJBpCLCRCkRCq5ISVUC-5" edge="1">
                    <mxGeometry relative="1" as="geometry">
                        <Array as="points">
                            <mxPoint x="410" y="10"/>
                            <mxPoint x="410" y="10"/>
                        </Array>
                    </mxGeometry>
                </mxCell>
                <mxCell id="hKJBpCLCRCkRCq5ISVUC-22" value="1" style="edgeLabel;html=1;align=center;verticalAlign=middle;resizable=0;points=[];" parent="hKJBpCLCRCkRCq5ISVUC-6" vertex="1" connectable="0">
                    <mxGeometry x="0.2333" y="-3" relative="1" as="geometry">
                        <mxPoint y="-1" as="offset"/>
                    </mxGeometry>
                </mxCell>
                <mxCell id="hKJBpCLCRCkRCq5ISVUC-2" value="includes" style="rhombus;whiteSpace=wrap;html=1;rounded=0;" parent="1" vertex="1">
                    <mxGeometry x="370" y="65" width="80" height="80" as="geometry"/>
                </mxCell>
                <mxCell id="hKJBpCLCRCkRCq5ISVUC-5" value="Category" style="whiteSpace=wrap;html=1;rounded=0;" parent="1" vertex="1">
                    <mxGeometry x="350" y="-85" width="120" height="60" as="geometry"/>
                </mxCell>
                <mxCell id="hKJBpCLCRCkRCq5ISVUC-7" value="id" style="ellipse;whiteSpace=wrap;html=1;" parent="1" vertex="1">
                    <mxGeometry x="160" y="-200" width="90" height="40" as="geometry"/>
                </mxCell>
                <mxCell id="hKJBpCLCRCkRCq5ISVUC-8" value="name" style="ellipse;whiteSpace=wrap;html=1;" parent="1" vertex="1">
                    <mxGeometry x="160" y="-150" width="90" height="40" as="geometry"/>
                </mxCell>
                <mxCell id="hKJBpCLCRCkRCq5ISVUC-9" value="icon" style="ellipse;whiteSpace=wrap;html=1;" parent="1" vertex="1">
                    <mxGeometry x="160" y="-100" width="90" height="40" as="geometry"/>
                </mxCell>
                <mxCell id="hKJBpCLCRCkRCq5ISVUC-10" value="description" style="ellipse;whiteSpace=wrap;html=1;" parent="1" vertex="1">
                    <mxGeometry x="160" y="-50" width="90" height="40" as="geometry"/>
                </mxCell>
                <mxCell id="hKJBpCLCRCkRCq5ISVUC-12" value="" style="endArrow=none;html=1;rounded=0;exitX=1;exitY=0.5;exitDx=0;exitDy=0;entryX=0;entryY=0.5;entryDx=0;entryDy=0;" parent="1" source="hKJBpCLCRCkRCq5ISVUC-7" target="hKJBpCLCRCkRCq5ISVUC-5" edge="1">
                    <mxGeometry width="50" height="50" relative="1" as="geometry">
                        <mxPoint x="250" y="-220" as="sourcePoint"/>
                        <mxPoint x="350" y="-110" as="targetPoint"/>
                    </mxGeometry>
                </mxCell>
                <mxCell id="hKJBpCLCRCkRCq5ISVUC-16" value="" style="endArrow=none;html=1;rounded=0;exitX=1;exitY=0.5;exitDx=0;exitDy=0;entryX=0;entryY=0.5;entryDx=0;entryDy=0;" parent="1" source="hKJBpCLCRCkRCq5ISVUC-8" target="hKJBpCLCRCkRCq5ISVUC-5" edge="1">
                    <mxGeometry width="50" height="50" relative="1" as="geometry">
                        <mxPoint x="250" y="-135" as="sourcePoint"/>
                        <mxPoint x="350" y="-10" as="targetPoint"/>
                    </mxGeometry>
                </mxCell>
                <mxCell id="hKJBpCLCRCkRCq5ISVUC-18" value="" style="endArrow=none;html=1;rounded=0;exitX=1;exitY=0.5;exitDx=0;exitDy=0;entryX=0;entryY=0.5;entryDx=0;entryDy=0;" parent="1" source="hKJBpCLCRCkRCq5ISVUC-9" target="hKJBpCLCRCkRCq5ISVUC-5" edge="1">
                    <mxGeometry width="50" height="50" relative="1" as="geometry">
                        <mxPoint x="270" y="-160" as="sourcePoint"/>
                        <mxPoint x="370" y="-35" as="targetPoint"/>
                    </mxGeometry>
                </mxCell>
                <mxCell id="hKJBpCLCRCkRCq5ISVUC-19" value="" style="endArrow=none;html=1;rounded=0;exitX=1;exitY=0.5;exitDx=0;exitDy=0;entryX=0;entryY=0.5;entryDx=0;entryDy=0;" parent="1" source="hKJBpCLCRCkRCq5ISVUC-10" target="hKJBpCLCRCkRCq5ISVUC-5" edge="1">
                    <mxGeometry width="50" height="50" relative="1" as="geometry">
                        <mxPoint x="260" y="-70" as="sourcePoint"/>
                        <mxPoint x="360" y="-45" as="targetPoint"/>
                    </mxGeometry>
                </mxCell>
                <mxCell id="hKJBpCLCRCkRCq5ISVUC-20" value="photoUrl" style="ellipse;whiteSpace=wrap;html=1;" parent="1" vertex="1">
                    <mxGeometry x="160" width="90" height="40" as="geometry"/>
                </mxCell>
                <mxCell id="hKJBpCLCRCkRCq5ISVUC-21" value="" style="endArrow=none;html=1;rounded=0;exitX=1;exitY=0.5;exitDx=0;exitDy=0;entryX=0;entryY=0.5;entryDx=0;entryDy=0;" parent="1" source="hKJBpCLCRCkRCq5ISVUC-20" target="hKJBpCLCRCkRCq5ISVUC-5" edge="1">
                    <mxGeometry width="50" height="50" relative="1" as="geometry">
                        <mxPoint x="260" y="-20" as="sourcePoint"/>
                        <mxPoint x="360" y="-45" as="targetPoint"/>
                    </mxGeometry>
                </mxCell>
            </root>
        </mxGraphModel>
    </diagram>
</mxfile>